<svg width="100%" viewBox="0 0 33 30" fill="none" xmlns="http://www.w3.org/2000/svg">
<path fill-rule="evenodd" clip-rule="evenodd" d="M1 0C0.447715 0 0 0.447716 0 1V29C0 29.5523 0.447717 30 1 30H4.26881C4.82109 30 5.26881 29.5523 5.26881 29V16.5C5.26881 15.9477 5.71652 15.5 6.26881 15.5L11.5 15.5C12.0523 15.5 12.5 15.0523 12.5 14.5V11.3629C12.5 10.8106 12.0523 10.3629 11.5 10.3629L6.26881 10.3629C5.71652 10.3629 5.26881 9.9152 5.26881 9.36292V6C5.26881 5.44772 5.71652 5 6.26881 5H16.5H26.7312C27.2835 5 27.7312 5.44772 27.7312 6V9.36292C27.7312 9.9152 27.2835 10.3629 26.7312 10.3629L21.5 10.3629C20.9477 10.3629 20.5 10.8106 20.5 11.3629V14.5C20.5 15.0523 20.9477 15.5 21.5 15.5L26.7312 15.5C27.2835 15.5 27.7312 15.9477 27.7312 16.5V29C27.7312 29.5523 28.1789 30 28.7312 30H32C32.5523 30 33 29.5523 33 29V1C33 0.447716 32.5523 0 32 0H16.5H1Z" fill="#EBEBEC"/>
<rect x="14" y="17" width="5" height="5" rx="1" fill="#00A08D"/>
</svg>
